<?xml version="1.0" encoding="utf-8"?>
<svg version="1.1" id="Griffith-logo" xmlns="http://www.w3.org/2000/svg" xmlns:xlink="http://www.w3.org/1999/xlink" x="0px" y="0px"
viewBox="0 0 428.7 109.6" style="enable-background:new 0 0 428.7 109.6;" xml:space="preserve">

	<g fill="#C02424">
	<polygon points="72.5,102.4 89.5,59.8 89.5,0 72.5,42.5 		"/>
	<polygon points="115.3,20.3 115.3,80.1 76.9,104.7 101.5,67.4 101.5,29.1 		"/>
	<polygon points="79.2,109.1 124.6,90.8 124.6,44.6 137.4,44.6 137.4,109.1 		"/>
	<polygon points="64.9,102.4 47.9,59.8 47.9,0 64.9,42.5 		"/>
	<polygon points="22.1,20.3 22.1,80.1 60.5,104.7 35.9,67.4 35.9,29.1 		"/>
	<polygon points="58.1,109.1 12.8,90.8 12.8,44.6 0,44.6 0,109.1 		"/>
</g>
<g fill="#C02424">
	<path d="M328.5,14.3c0,3.8,3.6,6.9,8.1,6.9c4.4,0,8-3.1,8-6.9c0-3.8-3.6-6.9-8-6.9C332.1,7.4,328.5,10.5,328.5,14.3z"
	/>
	<path d="M294.6,13.7c-1.3-0.1-2.9-0.3-3.6-0.3c-7,0-8.6,2-8.6,6.4v6.3h13.4h2.2v-3c0-6.1,0.7-10.8,6.1-14
	c4.9-3,12.6-3.4,18.1-3.4c1.3,0,3.2,0.1,5.2,0.2c-1.9,1.6-3.6,4.4-3.8,7.7c-1.2-0.2-2.7-0.3-3.3-0.3c-6.7,0-7.4,2.8-7.4,6.4v6.3
	h30.7v39.9h-15v-32h-15.7v32h-15V34.2h-2.2h-13.4v31.9l0,0h-15V34.2h-5.8v-8.1h5.8v-3c0-6.1,0.7-10.8,6.1-14
	c5-3,14.2-3.6,21.2-3.6c2.3,0,4.2,0.1,6,0.2C297.6,7.9,295.6,10.7,294.6,13.7z"/>
	<path d="M232.7,25c-5.5,0-8.1,5.1-9.4,9.6v-8.5h-15v39.9h15V46.8c0-6.1,3.4-11.7,8.1-11.7c1.5,0,3,0.4,4.5,0.7V25.3
	C235.2,25.1,233.8,25,232.7,25z"/>
	<rect x="240.6" y="26.1" width="15" height="39.9"/>
	<path d="M240,14.3c0,3.8,3.6,6.9,8,6.9c4.4,0,8.1-3.1,8.1-6.9c0-3.8-3.6-6.9-8.1-6.9C243.6,7.4,240,10.5,240,14.3z"/>
	<path d="M382.6,57.8c-2.8,0.5-5.4,0.5-6.1,0.5c-7.2,0-7.1-5-7.1-10.6V34.2h13.2v-8.1h-13.2V8v0h-15v18.2h-5.8v8.1h5.8
	v15.4c0,6.1,0.7,10.8,6.1,14c5,3,11.1,3.4,16.6,3.4c1.2,0,3.2-0.1,5.5-0.2V57.8z"/>
	<path d="M425.8,30c-3.2-3.6-7.5-5-12.2-5c-3.8,0-8,0.8-10.9,3.7V8h-15v58.1h15V41.2c0-4.1,0.9-7.2,5.2-7.2
	c3.9,0,5.3,2,5.3,8.5c0,2.6,0,23.6,0,23.6l15,0V42.2C428.2,38,428.8,33.3,425.8,30z"/>
	<path d="M201.5,20.1c-4.9-2.5-10.9-3.4-15.8-3.4c-12.6,0-19.3,7.3-19.3,17.9c0,10.8,3.8,23.3,16.5,23.3
	c1.1,0,2.4,0,3.5-0.3V35.4h15.1v28.9c-6.1,1.7-12.4,2.7-18.7,2.7c-18.3,0-33.1-10.4-33.1-29.9c0-19.8,14.2-30.7,36.2-30.7
	c2.6,0,10.2,0.9,15.6,2.4L201.5,20.1z"/>
</g>
<path d="M322.5,83.3c0,1.9-0.6,3.4-1.9,4.5c-1.2,1.1-2.9,1.9-5.1,2.2c-1,0.1-2.9,0.2-5.6,0.2h-5.7V77h8.6c2.1,0,3.6,0.1,4.5,0.3
c1.2,0.2,2.3,0.6,3.1,1.4C321.8,80,322.5,81.5,322.5,83.3z M329.2,109.1l-5.8-12.2c-1.2-2.4-3.1-4.4-4.5-4.6c1.9-0.3,4-1.5,4.9-2.4
c1.7-1.6,2.6-3.8,2.6-6.4c0-2.9-1-5.3-3.1-7.3c-1.3-1.2-3-1.9-5.2-2.3c-1.1-0.1-3.1-0.2-5.8-0.2h-11.7v35.3h3.8V93.5h7.6
c2.9,0,5,0.5,6.1,1.5c0.5,0.5,1.1,1.3,1.7,2.4c0.2,0.4,0.6,1.3,1.3,2.7l4.3,9H329.2z"/>
<path d="M177,106.2c-2.3,2.3-6.3,3.4-10.4,3.4c-4.1,0-8-1.2-10.4-3.5c-1.7-1.6-2.7-3.8-3.1-6.4c-0.2-1-0.3-3.4-0.3-7.4V73.7h3.8V96
c0,3.8,0.7,6.4,2.2,7.8c1.8,1.6,4.9,2.5,8,2.5c2.8,0,5.8-0.7,7.4-2.2c1.5-1.5,2.4-3.8,2.5-6.9c0-0.7,0-1.9,0-3.7V73.7h3.8v19.4
c0,3.4-0.1,5.8-0.3,7C179.6,102.7,178.6,104.7,177,106.2z"/>
<path d="M213.3,109.1l-21.5-29l0.1,29h-3.7V73.7h4.1l21.8,29.4l0-29.4h3.7v35.3H213.3z"/>
<path d="M225.3,109.1V73.7h3.9v35.3H225.3z"/>
<path d="M251.8,109.1h-4.4L234,73.7h4.4l11.4,31l11.7-31h4.1L251.8,109.1z"/>
<path d="M269.6,109.1V73.7h24.2v3.4h-20.4v11.7h18.5v3.3h-18.5v13.4h21.5v3.5H269.6z"/>
<path d="M353,79.6c-0.2-0.2-1.5-1.7-4.1-2.5c-1.2-0.4-2.6-0.6-4.2-0.6c-2.6,0-4.5,0.5-6,1.6c-1.4,1.1-2.1,2.5-2.1,4.1
c0,2.1,1.5,3.9,4.6,5.3c2,0.7,4.1,1.5,6.1,2.2c2.4,0.9,4.2,2,5.4,3c2,1.8,3,4,3,6.5c0,3-1,5.6-3,7.5c-2.2,2-5.4,3-9.4,3
c-6.9,0-10.8-3.4-11.6-4.1l2.3-2.7c0.4,0.3,4.4,3.3,9.3,3.3c2.8,0,4.9-0.4,6.3-1.7c1.4-1.2,2.2-3,2.2-5.1c0-1.9-1.1-3.6-3.3-5
c-1-0.6-3.3-1.5-6.3-2.7c-3-1.1-5.1-2.2-6.4-3.2c-1.9-1.6-2.9-3.7-2.9-6.2c0-2.7,1.1-4.8,3.2-6.5c2.1-1.7,4.9-2.5,8.3-2.5
c2.3,0,4.1,0.3,5.6,0.8c3.3,1.1,5,2.9,5.5,3.4L353,79.6z"/>
<path d="M362.3,109.1V73.7h3.9v35.3H362.3z"/>
<path d="M385.6,77.1v31.9h-3.8V77.1H371v-3.4h24.8v3.4H385.6z"/>
<path d="M415.2,94.7v14.3h-3.8V94.7l-13.7-21h4.6l11.1,17l10.8-17h4.5L415.2,94.7z"/>
</svg>